<?xml version="1.0" standalone="no"?><!DOCTYPE svg PUBLIC "-//W3C//DTD SVG 1.1//EN" "http://www.w3.org/Graphics/SVG/1.1/DTD/svg11.dtd"><svg t="1769745069342" class="icon" viewBox="0 0 1024 1024" version="1.1" xmlns="http://www.w3.org/2000/svg" p-id="9521" width="256" height="256" xmlns:xlink="http://www.w3.org/1999/xlink"><path d="M773.9392 301.8752m-200.0384 0a200.0384 200.0384 0 1 0 400.0768 0 200.0384 200.0384 0 1 0-400.0768 0Z" fill="#60A3FB" p-id="9522"></path><path d="M924.4672 706.2528a24.32 24.32 0 0 1-24.2688 24.2688h-145.7664a24.3712 24.3712 0 0 0-24.2688 24.32 24.2688 24.2688 0 0 0 24.2688 24.2688h48.5888a24.32 24.32 0 0 1 24.2688 24.32 24.32 24.32 0 0 1-24.2688 24.2688h-64.512A388.7616 388.7616 0 0 1 122.88 390.4512h-48.5888a24.32 24.32 0 0 1 0-48.5888h97.28a24.2688 24.2688 0 0 0 6.8096-47.5648l0.768-0.9728H122.88a24.32 24.32 0 1 1 0-48.5888h101.632a388.7616 388.7616 0 0 1 619.52 437.248h56.32a24.32 24.32 0 0 1 24.1152 24.2688z" fill="#8F48FC" p-id="9523"></path><path d="M705.4848 507.1872a18.6368 18.6368 0 0 1-34.2528 2.7136 18.2784 18.2784 0 0 1-1.1776-14.0288 90.0608 90.0608 0 0 0-19.0976-88.7808 91.8528 91.8528 0 0 0-87.04-28.0064 18.432 18.432 0 1 1-7.7824-35.84 129.1776 129.1776 0 0 1 122.368 39.3216 126.8224 126.8224 0 0 1 26.9824 124.6208z m-128.8192-69.0176a16.0256 16.0256 0 0 1-18.9952-12.1856 15.872 15.872 0 0 1 12.3392-18.8416A62.7712 62.7712 0 0 1 629.76 426.24a61.7472 61.7472 0 0 1 13.1072 60.8256 15.872 15.872 0 0 1-7.936 9.216 16.128 16.128 0 0 1-12.2368 0.9728 15.7696 15.7696 0 0 1-10.24-19.968 30.2592 30.2592 0 0 0-6.3488-29.7472 31.1296 31.1296 0 0 0-29.44-9.3696z m14.2336 90.112c27.8528 8.5504 58.88 29.3376 58.88 65.792 0 60.5184-87.8592 136.704-220.16 136.704-100.7104 0-203.7248-48.4864-203.7248-128 0-41.728 26.624-89.9072 72.3968-135.3728C359.6288 406.4768 431.0016 378.88 457.7792 405.504c11.8784 11.7248 13.0048 32.1024 5.12 56.32-3.9424 12.1856 11.5712 5.4272 11.5712 5.4784 49.4592-20.48 92.6208-21.76 108.3392 0.6144 8.3968 11.8784 7.6288 28.5696 0 47.9744-3.584 8.9088 1.0752 10.24 7.9872 12.3392zM430.08 702.208c80.384-7.8848 141.3632-56.7296 136.1408-109.2096S491.52 504.5248 411.1872 512.4096s-141.312 56.832-136.0896 109.1584S349.696 710.0928 430.08 702.208zM438.0672 552.96c39.6288 10.24 59.8016 47.2576 43.6224 83.2512-16.384 36.864-63.5904 56.32-103.6288 43.6736-38.656-12.3904-54.9888-50.2784-38.0416-84.4288S399.872 542.72 438.0672 552.96z m-29.184 87.04c7.6288-12.4416 3.6352-26.6752-8.96-32a30.72 30.72 0 0 0-36.4032 12.0832 21.0944 21.0944 0 0 0 8.2944 31.8976 30.72 30.72 0 0 0 37.0688-11.9808z" fill="#FFFFFF" p-id="9524"></path></svg>