<?xml version="1.0" standalone="no"?><!DOCTYPE svg PUBLIC "-//W3C//DTD SVG 1.1//EN" "http://www.w3.org/Graphics/SVG/1.1/DTD/svg11.dtd"><svg t="1770626653675" class="icon" viewBox="0 0 1024 1024" version="1.1" xmlns="http://www.w3.org/2000/svg" p-id="3493" xmlns:xlink="http://www.w3.org/1999/xlink" width="256" height="256"><path d="M887.5 877.6L761.9 751.9C826.2 684.7 866 593.8 866 493.4c0-206.5-167.6-374-374.2-374-206.7 0-374.2 167.5-374.2 374 0 206.6 167.6 374.1 374.2 374.1 85 0 163-28.6 225.9-76.3l128.1 128.2c2.7 2.7 6.4 4 10.6 4 7.4 0 16.4-4 23.8-11.4 11.4-11.6 14.7-27 7.3-34.4zM176.6 493.4c0-173.6 141.4-314.9 315.2-314.9 173.8 0 315.2 141.3 315.2 314.9 0 173.7-141.4 315-315.2 315-173.8 0-315.2-141.3-315.2-315z" fill="#666666" p-id="3494"></path></svg>