<?xml version="1.0" standalone="no"?><!DOCTYPE svg PUBLIC "-//W3C//DTD SVG 1.1//EN" "http://www.w3.org/Graphics/SVG/1.1/DTD/svg11.dtd"><svg t="1770639578786" class="icon" viewBox="0 0 1024 1024" version="1.1" xmlns="http://www.w3.org/2000/svg" p-id="19716" width="256" height="256" xmlns:xlink="http://www.w3.org/1999/xlink"><path d="M101.05856 512a419.108571 419.108571 0 0 0 20.187429 128.804571l-48.822858 60.891429L15.664274 776.045714c-9.654857 12.653714-14.848 25.526857-15.542857 38.656-0.731429 13.165714 3.072 26.514286 11.337143 40.155429 8.374857 13.897143 18.614857 23.405714 30.72 28.672 11.702857 5.046857 25.124571 6.034286 40.228571 3.035428l185.636572-36.754285a457.691429 457.691429 0 0 0 124.16 70.107428c20.297143 7.68 40.886857 13.933714 61.805714 18.761143 34.194286 7.606857 72.667429 12.178286 108.544 12.178286 68.754286 0 132.096-12.507429 190.061714-37.522286l5.229715-2.304a465.334857 465.334857 0 0 0 129.938285-87.771428c50.578286-47.835429 87.076571-101.156571 109.494858-160.073143 17.846857-46.884571 26.770286-97.28 26.770285-151.186286 0-53.906286-8.923429-104.301714-26.770285-151.186286-22.418286-58.88-58.88-112.274286-109.494858-160.036571a465.371429 465.371429 0 0 0-135.168-90.112C694.649417 85.650286 631.271131 73.142857 562.516846 73.142857c-68.827429 0-132.205714 12.544-190.171429 37.595429l-5.12 2.230857a465.627429 465.627429 0 0 0-129.938286 87.771428C187.952274 247.442286 152.039131 299.337143 129.511131 356.534857l-1.682285 4.315429c-17.846857 46.884571-26.770286 97.28-26.770286 151.186285z m30.537143 237.641143l76.032-95.670857a341.211429 341.211429 0 0 1-24.100572-73.654857A341.028571 341.028571 0 0 1 176.724846 512a343.771429 343.771429 0 0 1 20.772571-120.32c18.468571-48.091429 49.737143-95.232 91.318857-134.509714a390.107429 390.107429 0 0 1 110.665143-74.276572c49.554286-21.833143 103.899429-32.768 163.108572-32.768 59.172571 0 113.517714 10.934857 163.108571 32.768l4.388571 1.974857a390.217143 390.217143 0 0 1 106.203429 72.301715c41.545143 39.277714 71.533714 82.944 89.965714 131.035428A364.032 364.032 0 0 1 948.41856 512c0 42.788571-6.948571 82.870857-20.809143 120.32-18.432 48.091429-49.737143 95.232-91.245714 134.509714a390.070857 390.070857 0 0 1-110.665143 74.24c-49.554286 21.869714-103.899429 32.804571-163.108571 32.804572a402.432 402.432 0 0 1-143.981715-26.075429 390.144 390.144 0 0 1-85.028571-44.617143c-13.860571-9.618286-22.528-17.92-35.108572-29.403428l-210.651428 33.28 43.812571-57.417143zM365.76256 365.714286h219.428571a36.571429 36.571429 0 0 1 0 73.142857h-219.428571a36.571429 36.571429 0 0 1 0-73.142857z m321.828571 0H731.476846a36.571429 36.571429 0 0 1 0 73.142857h-43.885715a36.571429 36.571429 0 1 1 0-73.142857zM365.76256 512h102.4a36.571429 36.571429 0 1 1 0 73.142857H365.76256a36.571429 36.571429 0 0 1 0-73.142857z m248.685714 0h-43.885714a36.571429 36.571429 0 1 0 0 73.142857h43.885714a36.571429 36.571429 0 1 0 0-73.142857z" fill="#2c2c2c" p-id="19717"></path></svg>