<?xml version="1.0" standalone="no"?><!DOCTYPE svg PUBLIC "-//W3C//DTD SVG 1.1//EN" "http://www.w3.org/Graphics/SVG/1.1/DTD/svg11.dtd"><svg t="1772588672541" class="icon" viewBox="0 0 1024 1024" version="1.1" xmlns="http://www.w3.org/2000/svg" p-id="2462" xmlns:xlink="http://www.w3.org/1999/xlink" width="256" height="256"><path d="M834.346057 855.835999l-644.682905 0c-47.424102 0-85.957721-38.533618-85.957721-85.957721l0-515.746324c0-47.39238 38.533618-85.957721 85.957721-85.957721l236.352009 0c11.879562 0 21.521153 9.641591 21.521153 21.521153 0 11.816117-9.641591 21.457708-21.521153 21.457708L189.663152 211.153094c-23.712051 0-42.97886 19.283182-42.97886 42.97886l0 515.746324c0 23.712051 19.266809 42.97886 42.97886 42.97886l644.682905 0c23.632233 0 42.97886-19.266809 42.97886-42.97886L877.324918 662.46285c0-11.864212 9.577123-21.521153 21.457708-21.521153s21.521153 9.657964 21.521153 21.521153l0 107.415428C920.303778 817.302381 881.737414 855.835999 834.346057 855.835999L834.346057 855.835999zM898.781602 512.005117c-11.879562 0-21.457708-9.641591-21.457708-21.457708L877.323894 241.531985 441.204096 677.621085c-4.189416 4.221138-9.657964 6.299473-15.189957 6.299473-5.548366 0-11.000542-2.078335-15.189957-6.299473-8.394181-8.394181-8.394181-21.98471 0-30.363542l436.072727-436.104449L597.92958 211.153094c-11.879562 0-21.457708-9.641591-21.457708-21.457708 0-11.879562 9.577123-21.521153 21.457708-21.521153l300.676014 0c0.591471 0 1.182942 0 1.679245 0.064468 4.332678 0.303922 8.362458 1.870604 11.592013 4.365424 1.167592 0.895393 2.222621 1.935072 3.149736 3.021823 3.229554 3.75758 5.196349 8.650007 5.276167 14.007015 0 0 0 0 0 0.064468l0 300.852022C920.303778 502.363526 910.662187 512.005117 898.781602 512.005117L898.781602 512.005117z" p-id="2463" fill="#515151"></path></svg>